<svg width="222" height="219" viewBox="0 0 222 219" fill="none" xmlns="http://www.w3.org/2000/svg">
<g clip-path="url(#clip0_263_17811)">
<path d="M142.631 109.827L86.5019 109.293L69.49 109.21H64.8628H63.6626C63.5254 109.208 63.3881 109.216 63.2519 109.233C63.3862 109.254 63.5222 109.263 63.6581 109.261L64.8628 109.288L69.49 109.347L86.5019 109.439L142.631 109.471C164.534 109.471 184.385 109.498 198.759 109.603C205.942 109.653 211.755 109.722 215.771 109.799C217.779 109.836 219.34 109.877 220.398 109.918C220.938 109.909 221.477 109.949 222.009 110.037C221.477 110.122 220.937 110.158 220.398 110.142C219.34 110.169 217.779 110.196 215.771 110.215C211.751 110.247 205.942 110.256 198.759 110.237C184.385 110.224 164.544 110.05 142.631 109.827Z" fill="#EBEBEB"/>
<path d="M142.197 114.706L86.8214 105.577L70.0284 102.893L65.4651 102.195L64.2741 102.026C64.14 102.002 64.0041 101.99 63.868 101.989C64 102.026 64.1341 102.055 64.2696 102.076L65.4514 102.291L70.0147 103.057L86.8077 105.755L142.261 114.392C163.909 117.747 183.504 120.814 197.678 123.119C204.764 124.27 210.496 125.228 214.452 125.922C216.433 126.269 217.966 126.547 219.016 126.748C219.551 126.82 220.078 126.944 220.59 127.118C220.05 127.121 219.51 127.074 218.979 126.976C217.93 126.844 216.387 126.629 214.416 126.337C210.441 125.758 204.696 124.877 197.605 123.754C183.376 121.503 163.823 118.29 142.197 114.706Z" fill="#EBEBEB"/>
<path d="M141.006 119.457L87.766 101.829L71.6119 96.5701L67.2083 95.1687L66.0584 94.8218C65.9294 94.7751 65.7966 94.7399 65.6614 94.7168C65.7843 94.7785 65.9126 94.8289 66.0447 94.8674L67.1764 95.2646L71.5571 96.7298L87.7067 102.002L141.097 119.147C161.938 125.821 180.798 131.892 194.429 136.37C201.246 138.611 206.749 140.446 210.546 141.742C212.444 142.395 213.914 142.906 214.909 143.271C215.425 143.426 215.927 143.63 216.405 143.878C215.871 143.799 215.345 143.667 214.836 143.486C213.818 143.194 212.33 142.742 210.414 142.148C206.581 140.957 201.05 139.195 194.223 136.986C180.57 132.567 161.755 126.355 141.006 119.457Z" fill="#EBEBEB"/>
<path d="M139.039 123.959L89.2993 98.2917L74.1856 90.5911L70.0786 88.5232L69.0017 87.9983C68.8789 87.936 68.7524 87.8811 68.6229 87.834C68.7332 87.915 68.8508 87.9853 68.9743 88.044L70.033 88.61L74.14 90.7371L89.2491 98.4514L139.181 123.671C158.698 133.499 176.358 142.423 189.103 148.964C195.492 152.228 200.621 154.898 204.162 156.77C205.933 157.706 207.302 158.441 208.223 158.952C208.705 159.184 209.164 159.462 209.592 159.783C209.077 159.621 208.579 159.41 208.105 159.153C207.151 158.696 205.75 158.025 203.952 157.14C200.356 155.369 195.177 152.771 188.793 149.53C176.038 143.048 158.447 133.992 139.039 123.959Z" fill="#EBEBEB"/>
<path d="M136.402 128.103L91.3299 95.0821L77.64 85.1402L73.8935 82.4653L72.9079 81.7806C72.8008 81.6972 72.6862 81.6239 72.5656 81.5615C72.6635 81.6565 72.7688 81.7435 72.8805 81.8217L73.8342 82.5429L77.5396 85.2817L91.2295 95.2328L136.607 127.847C154.326 140.565 170.375 152.104 181.902 160.526C187.679 164.739 192.339 168.167 195.542 170.568C197.144 171.764 198.38 172.705 199.193 173.353C199.636 173.654 200.048 173.999 200.42 174.384C199.938 174.146 199.479 173.862 199.051 173.535C198.175 172.947 196.902 172.061 195.264 170.906C191.996 168.624 187.292 165.237 181.496 161.051C169.919 152.661 153.979 141.003 136.402 128.103Z" fill="#EBEBEB"/>
<path d="M133.139 131.791L93.8215 92.2564L81.8474 80.338C80.4328 78.9458 79.3284 77.8685 78.5664 77.1199L77.7039 76.2937C77.6127 76.1925 77.5101 76.1021 77.3982 76.0244C77.482 76.13 77.5719 76.2305 77.6674 76.3257L78.4979 77.1884L81.7287 80.4522L93.6937 92.3843L133.372 131.563C148.887 146.846 162.882 160.704 172.967 170.819C177.987 175.84 182.071 179.949 184.832 182.82C186.228 184.249 187.301 185.367 188.026 186.134C188.416 186.502 188.769 186.907 189.08 187.343C188.643 187.034 188.236 186.682 187.867 186.294C187.095 185.577 185.973 184.504 184.54 183.098C181.674 180.323 177.558 176.251 172.493 171.23C162.376 161.192 148.472 147.229 133.139 131.791Z" fill="#EBEBEB"/>
<path d="M129.333 134.933L96.742 89.8471L86.7803 76.2307L84.0423 72.5515L83.3168 71.6021C83.2404 71.489 83.1533 71.3835 83.0567 71.2871C83.1234 71.4061 83.1981 71.5205 83.2803 71.6295L83.9602 72.6063L86.6389 76.3311L96.5732 89.9521C105.034 101.423 116.702 117.249 129.593 134.741C142.485 152.233 154.153 168.063 162.522 179.571C166.707 185.327 170.07 190.001 172.374 193.265C173.524 194.89 174.409 196.159 174.998 197.026C175.324 197.454 175.609 197.913 175.847 198.395C175.463 198.022 175.116 197.612 174.811 197.172C174.163 196.346 173.223 195.118 172.027 193.52C169.632 190.325 166.205 185.706 161.988 179.968C153.582 168.465 142.046 152.539 129.333 134.933Z" fill="#EBEBEB"/>
<path d="M125.08 137.452C115.296 118.097 106.444 100.583 100.023 87.8882L92.3567 72.9069L90.2393 68.8489L89.678 67.7991C89.6182 67.6785 89.5495 67.5626 89.4727 67.4521C89.5142 67.5801 89.5677 67.7039 89.6324 67.8219L90.1526 68.8946C90.6317 69.844 91.3208 71.218 92.2061 73.0028C94.0314 76.5541 96.6325 81.6757 99.8633 87.9887L125.377 137.319C135.348 156.569 144.351 174.01 150.794 186.677C154.016 193.008 156.599 198.144 158.356 201.709C159.236 203.494 159.907 204.881 160.354 205.817C160.609 206.287 160.817 206.781 160.975 207.291C160.656 206.862 160.377 206.404 160.145 205.922C159.638 205.009 158.903 203.64 157.972 201.891C156.115 198.377 153.459 193.273 150.215 186.956C143.712 174.311 134.846 156.801 125.08 137.452Z" fill="#EBEBEB"/>
<path d="M120.471 139.278L103.633 86.4458L98.4487 70.4694C97.8235 68.5979 97.3398 67.1418 97.0067 66.133C96.8378 65.6491 96.7101 65.2794 96.6188 65.01C96.5805 64.8808 96.5301 64.7555 96.4682 64.6357C96.4918 64.7689 96.5254 64.9001 96.5686 65.0283L96.9108 66.1649C97.2303 67.1737 97.6912 68.639 98.2798 70.5242C99.5074 74.3129 101.269 79.7677 103.45 86.5006L120.791 139.182C127.572 159.723 133.682 178.356 138.022 191.863C140.194 198.618 141.923 204.092 143.091 207.885C143.676 209.779 144.118 211.258 144.406 212.262C144.582 212.765 144.709 213.283 144.784 213.81C144.536 213.338 144.334 212.842 144.182 212.331C143.826 211.349 143.32 209.893 142.681 208.013C141.403 204.256 139.596 198.806 137.396 192.059C133.002 178.57 127.033 159.905 120.471 139.278Z" fill="#EBEBEB"/>
<path d="M115.643 140.369C112.449 118.979 109.542 99.6151 107.429 85.5924C106.348 78.5947 105.472 72.9345 104.86 68.9997L104.13 64.4944C104.039 63.9923 103.975 63.5815 103.925 63.3258C103.906 63.1914 103.877 63.0586 103.838 62.9287C103.839 63.0649 103.851 63.2008 103.874 63.335C103.911 63.6134 103.966 64.006 104.034 64.5127C104.185 65.558 104.408 67.078 104.691 69.0271C105.298 72.9619 106.17 78.613 107.251 85.6198C109.483 99.6334 112.558 118.965 115.958 140.332C119.358 161.699 122.438 181.022 124.569 195.035C125.637 202.042 126.476 207.716 127.024 211.642C127.298 213.604 127.48 215.129 127.622 216.165C127.724 216.682 127.774 217.208 127.772 217.736C127.606 217.229 127.487 216.708 127.417 216.179C127.22 215.152 126.96 213.636 126.622 211.683C125.961 207.771 125.048 202.097 123.953 195.108C121.74 181.118 118.828 161.754 115.643 140.369Z" fill="#EBEBEB"/>
<path d="M110.687 140.702C110.888 119.079 111.066 99.5055 111.194 85.323C111.226 78.2477 111.249 72.5419 111.267 68.5386C111.267 66.5712 111.267 65.0375 111.267 63.9739C111.267 63.4627 111.267 63.061 111.267 62.7871C111.28 62.652 111.28 62.516 111.267 62.3809C111.249 62.5155 111.242 62.6513 111.244 62.7871C111.244 63.0656 111.244 63.4627 111.212 63.9739C111.212 65.0329 111.185 66.5621 111.157 68.5386C111.157 72.519 111.112 78.2477 111.075 85.323V140.702C111.075 162.32 111.075 181.894 110.98 196.062C110.929 203.147 110.865 208.88 110.792 212.842C110.751 214.828 110.715 216.366 110.674 217.407C110.686 217.941 110.644 218.474 110.551 219C110.468 218.473 110.433 217.94 110.446 217.407C110.414 216.361 110.391 214.823 110.368 212.842C110.332 208.88 110.318 203.147 110.336 196.058C110.313 181.889 110.478 162.316 110.687 140.702Z" fill="#EBEBEB"/>
<path d="M105.741 140.273C109.346 118.942 112.609 99.6473 114.968 85.6474L117.683 69.0776C117.989 67.1285 118.221 65.613 118.386 64.5677C118.459 64.061 118.514 63.6547 118.555 63.3945C118.581 63.2607 118.594 63.1247 118.596 62.9883C118.556 63.1183 118.525 63.251 118.504 63.3854C118.454 63.6639 118.381 64.0519 118.29 64.554C118.112 65.5947 117.834 67.1102 117.514 69.0502C116.871 72.9758 115.94 78.636 114.776 85.6154C112.54 99.629 109.46 118.965 106.056 140.328C102.651 161.691 99.5713 181.017 97.244 194.999C96.0803 201.992 95.1129 207.643 94.4147 211.546C94.0633 213.5 93.785 215.015 93.5796 216.038C93.5068 216.566 93.3815 217.086 93.2054 217.59C93.2027 217.057 93.2516 216.525 93.3515 216.001C93.4838 214.965 93.6983 213.44 93.9903 211.482C94.579 207.561 95.4688 201.896 96.6005 194.899C98.8776 180.903 102.127 161.59 105.741 140.273Z" fill="#EBEBEB"/>
<path d="M100.927 139.086L118.76 86.5923L124.085 70.6524L125.5 66.3068C125.651 65.8184 125.769 65.4441 125.851 65.1748C125.898 65.0474 125.933 64.916 125.956 64.7822C125.894 64.902 125.844 65.0273 125.806 65.1565L125.404 66.2794L123.921 70.5976C122.657 74.3772 120.832 79.8183 118.582 86.5375L101.241 139.209C94.4877 159.773 88.3455 178.384 83.8142 191.831C81.5325 198.555 79.7072 203.987 78.3747 207.735C77.7176 209.606 77.1974 211.058 76.8323 212.035C76.6748 212.54 76.4653 213.028 76.2072 213.491C76.2911 212.964 76.424 212.446 76.6042 211.943C76.9008 210.944 77.3571 209.474 77.9731 207.579C79.1779 203.8 80.9621 198.34 83.1981 191.603C87.661 178.142 93.9493 159.577 100.927 139.086Z" fill="#EBEBEB"/>
<path d="M96.3632 137.169C106.507 117.997 115.693 100.651 122.347 88.0757L130.145 73.1629C131.058 71.4009 131.752 70.0361 132.24 69.0912C132.468 68.6347 132.641 68.2787 132.769 68.0276C132.837 67.9089 132.892 67.7835 132.934 67.6533C132.857 67.7663 132.787 67.8837 132.724 68.0048L132.153 69.0455C131.651 69.9813 130.926 71.3279 129.999 73.0853L122.187 87.9936C115.648 100.629 106.622 118.057 96.6553 137.292C86.689 156.528 77.6674 173.979 71.0461 186.554C67.7377 192.84 65.0362 197.92 63.1424 201.417C62.1933 203.161 61.4494 204.516 60.9338 205.425C60.6983 205.908 60.4155 206.367 60.0896 206.794C60.2565 206.287 60.4704 205.796 60.7284 205.329C61.1848 204.389 61.8693 203.005 62.7637 201.221C64.557 197.674 67.1901 192.548 70.4711 186.262C77.0331 173.677 86.2053 156.322 96.3632 137.169Z" fill="#EBEBEB"/>
<path d="M92.1787 134.567L125.628 90.0841L135.694 76.5543L138.405 72.8569L139.099 71.8892C139.182 71.7812 139.257 71.6667 139.322 71.5469C139.225 71.6426 139.137 71.7464 139.057 71.8573L138.327 72.8022L135.557 76.4539L125.482 89.9745L92.4479 134.754C79.5703 152.241 67.8791 168.076 59.3503 179.461C55.0836 185.162 51.5927 189.759 49.1878 192.917C47.974 194.501 47.0248 195.72 46.3677 196.542C46.0587 196.979 45.7088 197.385 45.3227 197.756C45.5648 197.272 45.8537 196.814 46.1852 196.386C46.7784 195.524 47.6774 194.264 48.8456 192.653C51.1774 189.425 54.5862 184.783 58.8255 179.064C67.2813 167.647 79.0912 151.917 92.1787 134.567Z" fill="#EBEBEB"/>
<path d="M88.4185 131.349L128.471 92.5494L140.55 80.7223L143.808 77.4859L144.648 76.6323C144.746 76.5391 144.838 76.4384 144.921 76.3311C144.811 76.4129 144.708 76.503 144.611 76.6004L143.744 77.4175L140.436 80.6127L128.347 92.4261L88.6467 131.591C73.168 146.887 59.1267 160.718 48.9004 170.674C43.7895 175.65 39.6369 179.662 36.7392 182.41C35.2926 183.779 34.1655 184.843 33.3851 185.555C33.0101 185.938 32.6007 186.287 32.1622 186.596C32.4749 186.16 32.8311 185.758 33.2254 185.395C33.951 184.633 35.0507 183.528 36.4425 182.113C39.2535 179.283 43.3559 175.22 48.4486 170.222C58.6293 160.221 72.7755 146.486 88.4185 131.349Z" fill="#EBEBEB"/>
<path d="M85.2288 127.602L130.917 95.4024C136.73 91.2577 141.44 87.9072 144.711 85.5792L148.44 82.8815L149.403 82.1648C149.514 82.0859 149.621 82.0006 149.722 81.9092C149.599 81.9689 149.483 82.0407 149.375 82.1237L148.385 82.7993L144.611 85.4377L130.812 95.2518L85.425 127.866C67.7194 140.602 51.6566 152.11 40.0019 160.376C34.1655 164.507 29.4288 167.83 26.1386 170.104C24.4913 171.24 23.209 172.112 22.3283 172.692C21.9005 173.016 21.442 173.297 20.9593 173.532C21.3386 173.151 21.7543 172.809 22.2005 172.509C23.0356 171.87 24.2814 170.943 25.8922 169.77C29.1184 167.406 33.8095 164.019 39.6277 159.865C51.255 151.548 67.3909 140.136 85.2288 127.602Z" fill="#EBEBEB"/>
<path d="M82.6733 123.406L132.902 98.6565L148.084 91.0837L152.191 88.9931L153.254 88.4408C153.376 88.3814 153.494 88.3127 153.605 88.2354C153.476 88.2783 153.351 88.3317 153.231 88.3951L152.145 88.9109L148.002 90.9331L132.815 98.4968L82.8239 123.703C63.3204 133.549 45.633 142.441 32.8102 148.809C26.3896 152.004 21.1874 154.547 17.5733 156.281C15.748 157.148 14.379 157.815 13.4024 158.253C12.924 158.497 12.4246 158.697 11.9102 158.851C12.3379 158.532 12.7965 158.257 13.2792 158.029C14.1919 157.527 15.5609 156.806 17.3862 155.884C20.9456 154.058 26.1158 151.429 32.5181 148.22C45.3227 141.811 63.0648 133.051 82.6733 123.406Z" fill="#EBEBEB"/>
<path d="M80.8206 118.869C101.73 112.369 120.649 106.485 134.366 102.226L150.589 97.0999L154.983 95.6757L156.12 95.2922C156.252 95.2537 156.38 95.2033 156.503 95.1416C156.369 95.1677 156.236 95.2012 156.106 95.242L154.951 95.5844L150.539 96.9538L134.33 102.062L80.9393 119.193C60.1078 125.894 41.2386 131.933 27.5487 136.224C20.7037 138.369 15.1593 140.081 11.3124 141.245C9.3913 141.82 7.89454 142.258 6.87692 142.541C6.36631 142.715 5.84086 142.842 5.30714 142.92C5.78629 142.671 6.28926 142.471 6.80847 142.322C7.80327 141.971 9.27722 141.473 11.1847 140.839C14.9905 139.579 20.5166 137.794 27.3524 135.617C40.9967 131.244 59.9162 125.346 80.8206 118.869Z" fill="#EBEBEB"/>
<path d="M79.7072 114.118L135.243 105.992L152.058 103.45L156.622 102.724L157.808 102.523C157.944 102.504 158.078 102.475 158.21 102.437C158.072 102.437 157.935 102.45 157.799 102.473L156.608 102.628L152.045 103.281L135.224 105.814L79.7665 114.442C58.1274 117.824 38.5234 120.86 24.3179 122.973C17.2174 124.027 11.4676 124.858 7.48841 125.401C5.49881 125.671 3.95185 125.858 2.89773 125.995C2.36631 126.091 1.82673 126.133 1.28688 126.123C1.8013 125.957 2.32982 125.84 2.86578 125.771C3.90165 125.575 5.43948 125.315 7.42908 124.986C11.3946 124.329 17.1352 123.425 24.2312 122.339C38.4048 120.138 58.0315 117.253 79.7072 114.118Z" fill="#EBEBEB"/>
<path d="M79.3695 109.21L135.498 109.667L152.515 109.726H157.137H158.342C158.479 109.728 158.617 109.721 158.753 109.703C158.617 109.682 158.479 109.673 158.342 109.676L157.137 109.648L152.515 109.598L135.53 109.507L79.4015 109.539C57.4976 109.566 37.6473 109.562 23.2729 109.475C16.0902 109.434 10.2766 109.374 6.26088 109.301C4.25303 109.265 2.69238 109.228 1.63369 109.187C1.08653 109.203 0.53918 109.163 3.05176e-05 109.069C0.534312 108.986 1.07492 108.951 1.61544 108.964C2.66956 108.932 4.23021 108.909 6.23806 108.886C10.2583 108.845 16.072 108.831 23.2546 108.845C37.6153 108.868 57.4611 109.014 79.3695 109.21Z" fill="#EBEBEB"/>
<path d="M79.7985 104.331L135.183 113.401L151.981 116.067L156.544 116.756L157.735 116.925C157.871 116.948 158.008 116.96 158.146 116.961C158.014 116.922 157.88 116.893 157.744 116.875L156.558 116.66L151.994 115.898L135.215 113.204L79.7483 104.655C58.0954 101.327 38.496 98.2643 24.3179 95.9819C17.2311 94.8408 11.4996 93.8913 7.54317 93.202C5.5627 92.8597 4.02943 92.5812 2.97987 92.3804C2.44508 92.3068 1.91811 92.1846 1.40553 92.0152C1.94584 92.0089 2.48544 92.0563 3.01638 92.1567C4.06594 92.2845 5.6129 92.4991 7.6025 92.7866C11.5771 93.3618 17.3223 94.2336 24.4137 95.3474C38.6101 97.5887 58.1867 100.775 79.7985 104.331Z" fill="#EBEBEB"/>
<path d="M80.9986 99.5785L134.243 117.139L150.406 122.379L154.815 123.749L155.965 124.1C156.094 124.144 156.227 124.178 156.362 124.2C156.238 124.14 156.11 124.09 155.978 124.05L154.842 123.657L150.461 122.197L134.303 116.943L80.9119 99.8661C60.0622 93.2199 41.2112 87.1717 27.5532 82.7074C20.7402 80.4799 15.2323 78.6494 11.4311 77.3576C9.53277 76.7094 8.06339 76.1982 7.06859 75.8376C6.55136 75.6837 6.05013 75.4804 5.57182 75.2305C6.10677 75.3068 6.63268 75.4368 7.1416 75.6185C8.15921 75.9106 9.65141 76.3579 11.568 76.9514C15.4012 78.1336 20.9319 79.891 27.7632 82.0912C41.4029 86.5144 60.2356 92.7087 80.9986 99.5785Z" fill="#EBEBEB"/>
<path d="M82.9426 95.0732L132.724 120.677L147.851 128.363L151.958 130.422L153.039 130.947C153.161 131.009 153.286 131.064 153.414 131.111C153.303 131.031 153.185 130.961 153.062 130.901L152.004 130.34L147.897 128.217L132.792 120.508L82.7737 95.3562C63.2474 85.5513 45.5737 76.641 32.8238 70.1226C26.4352 66.8634 21.2969 64.1885 17.765 62.3353C15.9944 61.4223 14.6208 60.6691 13.6991 60.1579C13.2159 59.9278 12.7546 59.6544 12.3209 59.3408C12.8358 59.5009 13.334 59.7103 13.8086 59.9662C14.7669 60.4226 16.1678 61.0891 17.9657 61.9746C21.5616 63.7412 26.7455 66.3339 33.1387 69.5657C45.9205 76.0339 63.5212 85.0674 82.9426 95.0732Z" fill="#EBEBEB"/>
<path d="M85.5802 90.929C103.195 103.801 119.134 115.451 130.693 123.891L144.41 133.814L148.161 136.489L149.147 137.169C149.253 137.254 149.368 137.327 149.489 137.388C149.392 137.295 149.286 137.209 149.174 137.133L148.221 136.412L144.511 133.673L130.798 123.749L85.384 91.1892C67.6464 78.4948 51.6155 66.9964 40.043 58.5699C34.2613 54.3659 29.5976 50.9423 26.3942 48.5276C24.7924 47.3362 23.5512 46.3959 22.7207 45.7523C22.2797 45.4515 21.8672 45.1108 21.4886 44.7344C21.9709 44.9732 22.4293 45.2575 22.8576 45.5834C23.7292 46.1723 25.0069 47.0532 26.6451 48.2035C29.917 50.4859 34.6264 53.8638 40.4263 58.045C52.0217 66.4121 67.9932 78.0566 85.5802 90.929Z" fill="#EBEBEB"/>
<path d="M88.8384 87.2354L128.201 126.72L140.194 138.629L143.475 141.824L144.337 142.651C144.432 142.749 144.536 142.84 144.648 142.92C144.564 142.812 144.472 142.709 144.374 142.614L143.543 141.756L140.312 138.492C137.469 135.671 133.381 131.604 128.329 126.578L88.6011 87.4454C73.0859 72.1856 59.0537 58.3455 48.9597 48.2666C43.9081 43.2455 39.8331 39.1373 37.054 36.2752C35.6577 34.851 34.5807 33.7327 33.8597 32.9704C33.4686 32.6037 33.1154 32.1984 32.8056 31.7607C33.2433 32.0706 33.6498 32.4222 34.0194 32.8106C34.7906 33.5273 35.9132 34.5954 37.3506 36.0059C40.221 38.7767 44.3416 42.821 49.4115 47.8376C59.5602 57.8708 73.4692 71.8113 88.8384 87.2354Z" fill="#EBEBEB"/>
<path d="M92.635 84.0907L125.299 129.135L135.261 142.738L137.999 146.417L138.724 147.366C138.801 147.478 138.888 147.581 138.984 147.677C138.919 147.558 138.845 147.444 138.765 147.334L138.076 146.358C137.456 145.495 136.557 144.244 135.398 142.642L125.441 129.03L92.3658 84.2961C79.4425 66.8407 67.7696 51.0149 59.3823 39.5074C55.216 33.7422 51.8209 29.0679 49.5118 25.8224C48.371 24.1928 47.4583 22.933 46.8834 22.0657C46.5557 21.6385 46.2714 21.1798 46.0346 20.6963C46.4169 21.0712 46.7637 21.4807 47.0705 21.9196C47.7185 22.7458 48.6585 23.9737 49.8586 25.5714C52.2589 28.7667 55.6905 33.377 59.8979 39.1148C68.3446 50.5859 79.9034 66.4984 92.635 84.0907Z" fill="#EBEBEB"/>
<path d="M96.8835 81.5662L122.004 131.093C125.244 137.406 127.868 142.505 129.694 146.065L131.811 150.123L132.377 151.169C132.434 151.293 132.504 151.411 132.587 151.52C132.539 151.392 132.484 151.267 132.422 151.146L131.902 150.078L129.844 145.992L122.169 131.006C115.616 118.376 106.576 100.957 96.5914 81.7077C86.6069 62.4584 77.5761 45.0487 71.1099 32.4091C67.8791 26.0596 65.2917 20.9289 63.5257 17.3456C62.645 15.5654 61.9697 14.1777 61.527 13.2374C61.2712 12.769 61.0618 12.2767 60.9018 11.7676C61.2224 12.196 61.5006 12.6547 61.7324 13.137C62.2434 14.0499 62.9781 15.4193 63.9091 17.1676C65.7754 20.6778 68.4358 25.7766 71.6667 32.0896C78.2059 44.7338 87.0952 62.2256 96.8835 81.5662Z" fill="#EBEBEB"/>
<path d="M101.483 79.7317L118.39 132.541C120.585 139.278 122.36 144.733 123.597 148.517C124.222 150.389 124.706 151.845 125.044 152.849C125.212 153.333 125.34 153.707 125.431 153.972C125.469 154.103 125.52 154.23 125.582 154.351C125.563 154.217 125.529 154.085 125.482 153.958L125.139 152.822C124.815 151.808 124.355 150.347 123.77 148.467C122.543 144.678 120.768 139.223 118.582 132.49C114.124 119.006 107.977 100.396 101.182 79.8367C94.3873 59.2773 88.2314 40.6717 83.8735 27.1693C81.6922 20.4182 79.9536 14.9451 78.7809 11.1564C78.1922 9.2575 77.7495 7.78311 77.4621 6.77887C77.2865 6.2761 77.1582 5.75805 77.0787 5.23145C77.3274 5.70352 77.5292 6.19889 77.6811 6.7104C78.0416 7.69181 78.5481 9.14795 79.187 11.024C80.4738 14.7808 82.2855 20.231 84.4941 26.9731C88.9114 40.4526 94.9167 59.113 101.483 79.7317Z" fill="#EBEBEB"/>
<path d="M106.325 78.6358C109.556 100.021 112.481 119.38 114.598 133.412C115.689 140.405 116.574 146.065 117.19 150C117.51 151.945 117.756 153.456 117.925 154.501L118.135 155.674C118.15 155.808 118.179 155.939 118.221 156.067C118.223 155.929 118.212 155.792 118.19 155.656C118.148 155.377 118.098 154.985 118.03 154.478C117.875 153.433 117.651 151.913 117.359 149.964C116.752 146.033 115.871 140.378 114.785 133.375C112.536 119.362 109.433 100.053 106.001 78.6723C102.569 57.2913 99.48 38.0009 97.3124 23.9919C96.2355 16.9851 95.3913 11.3112 94.8391 7.38555C94.5607 5.42274 94.36 3.89813 94.2322 2.86195C94.1366 2.33805 94.0938 1.80588 94.1044 1.27344C94.2709 1.77862 94.39 2.29819 94.4603 2.82543C94.6566 3.85249 94.9167 5.36796 95.2635 7.32165C95.9297 11.229 96.8515 16.9075 97.9558 23.8915C100.169 37.8868 103.131 57.2502 106.325 78.6358Z" fill="#EBEBEB"/>
<path d="M111.272 78.2935C111.103 99.921 110.948 119.49 110.815 133.677C110.815 140.752 110.774 146.458 110.765 150.457C110.765 152.429 110.765 153.962 110.765 155.021C110.765 155.533 110.765 155.934 110.765 156.208C110.755 156.343 110.755 156.479 110.765 156.614C110.786 156.48 110.795 156.344 110.792 156.208C110.792 155.925 110.792 155.533 110.82 155.021C110.82 153.962 110.847 152.429 110.865 150.457C110.865 146.476 110.902 140.748 110.929 133.672C110.929 119.485 110.884 99.8936 110.861 78.2889C110.838 56.6843 110.806 37.1018 110.888 22.933C110.925 15.844 110.984 10.1108 111.053 6.14863C111.089 4.16756 111.126 2.62926 111.162 1.58395C111.175 1.05155 111.236 0.52143 111.345 0C111.434 0.526059 111.471 1.05973 111.454 1.59308C111.486 2.63382 111.513 4.17212 111.536 6.15776C111.582 10.1245 111.6 15.8577 111.591 22.9421C111.596 37.1063 111.459 56.6797 111.272 78.2935Z" fill="#EBEBEB"/>
<path d="M116.218 78.7178C112.645 100.053 109.41 119.343 107.064 133.357C105.928 140.346 105.011 146.001 104.372 149.927C104.071 151.876 103.838 153.392 103.674 154.441C103.601 154.948 103.546 155.354 103.505 155.615C103.481 155.747 103.469 155.882 103.468 156.016C103.508 155.888 103.537 155.757 103.555 155.624C103.61 155.345 103.678 154.957 103.769 154.455C103.947 153.41 104.226 151.899 104.541 149.954C105.18 146.029 106.106 140.368 107.242 133.384C109.46 119.371 112.517 100.035 115.912 78.663C119.308 57.2911 122.342 37.9688 124.651 23.9826C125.806 16.9895 126.764 11.3339 127.458 7.43105C127.804 5.47736 128.087 3.96188 128.288 2.93939C128.356 2.40618 128.474 1.88049 128.639 1.36914C128.646 1.90205 128.598 2.43423 128.498 2.95765C128.37 3.99384 128.156 5.51844 127.864 7.47669C127.284 11.3978 126.399 17.0625 125.276 24.0648C123.031 38.0784 119.809 57.3961 116.218 78.7178Z" fill="#EBEBEB"/>
<path d="M121.037 79.882L103.272 132.435C101.036 139.159 99.2244 144.6 97.9695 148.38C97.3626 150.256 96.888 151.716 96.5595 152.725L96.2081 153.862C96.1612 153.989 96.126 154.121 96.1031 154.254C96.1649 154.132 96.2168 154.006 96.2583 153.876C96.3496 153.611 96.4819 153.241 96.6553 152.757L98.1338 148.434L103.45 132.49C107.872 118.992 113.978 100.373 120.722 79.7952C127.467 59.2176 133.568 40.6256 138.081 27.1507C140.335 20.4269 142.188 14.9903 143.498 11.2427C144.15 9.37122 144.67 7.91965 145.035 6.93824C145.19 6.43135 145.396 5.94183 145.651 5.47754C145.568 6.00423 145.437 6.5222 145.259 7.02497C144.962 8.02463 144.506 9.49903 143.89 11.3888C142.69 15.1729 140.915 20.6323 138.688 27.3652C134.252 40.8265 127.991 59.4002 121.037 79.882Z" fill="#EBEBEB"/>
<path d="M125.605 81.8131C115.483 100.985 106.32 118.331 99.6853 130.938L91.9003 145.86C90.9877 147.622 90.2986 148.992 89.8149 149.937C89.5868 150.393 89.4133 150.749 89.2856 151C89.2211 151.119 89.1662 151.242 89.1213 151.37C89.201 151.26 89.2712 151.144 89.3312 151.023L89.9016 149.978C90.4036 149.042 91.1246 147.695 92.0509 145.938L99.845 131.007C106.366 118.363 115.36 100.921 125.313 81.6488C135.265 62.3767 144.255 44.9442 150.867 32.3502C154.167 26.0555 156.859 20.975 158.748 17.4784C159.693 15.7302 160.437 14.3745 160.952 13.4661C161.189 12.9835 161.472 12.5249 161.796 12.0967C161.629 12.6037 161.415 13.0942 161.158 13.5619C160.701 14.5068 160.021 15.8899 159.127 17.6702C157.338 21.2169 154.714 26.3431 151.438 32.6423C144.885 45.2774 135.735 62.646 125.605 81.8131Z" fill="#EBEBEB"/>
<path d="M129.812 84.4101L96.4226 128.934C92.1833 134.64 88.7562 139.264 86.3833 142.473L83.6773 146.175L82.9837 147.147C82.9011 147.254 82.8263 147.367 82.76 147.485C82.857 147.389 82.9455 147.285 83.0247 147.175L83.7548 146.23L86.4928 142.578L96.5549 129.044C105.002 117.559 116.633 101.724 129.529 84.2184C142.425 66.7128 154.057 50.8962 162.572 39.4844C166.843 33.7786 170.312 29.1591 172.73 26.0186C173.939 24.4392 174.889 23.2159 175.546 22.3943C175.856 21.949 176.209 21.5347 176.6 21.1572C176.358 21.6408 176.069 22.0994 175.737 22.5266C175.144 23.3894 174.245 24.6492 173.081 26.2651C170.754 29.4923 167.35 34.1438 163.115 39.8633C154.646 51.2979 142.859 67.0415 129.812 84.4101Z" fill="#EBEBEB"/>
<path d="M133.554 87.642C117.934 102.815 103.801 116.55 93.5523 126.501L81.4915 138.31L78.2333 141.551C77.8728 141.916 77.5944 142.199 77.3982 142.405C77.2979 142.496 77.2062 142.597 77.1244 142.706C77.2332 142.623 77.3369 142.533 77.4347 142.437L78.3017 141.619L81.6101 138.424L93.68 126.602L133.321 87.3818C148.782 72.0673 162.805 58.2181 173.022 48.2533C178.124 43.2733 182.272 39.2563 185.161 36.5175C186.607 35.1481 187.739 34.08 188.515 33.3679C188.89 32.9844 189.299 32.636 189.738 32.3271C189.424 32.7632 189.068 33.1669 188.674 33.5322C187.949 34.29 186.849 35.3992 185.48 36.8142C182.669 39.6489 178.576 43.7206 173.492 48.7235C163.307 58.7202 149.179 72.4645 133.554 87.642Z" fill="#EBEBEB"/>
<path d="M136.748 91.3665L91.1154 123.616L77.3297 133.453L73.6061 136.155L72.6432 136.867C72.5289 136.942 72.4232 137.029 72.3283 137.128C72.448 137.061 72.5638 136.988 72.6751 136.908L73.6608 136.233L77.4301 133.585L91.2204 123.758L136.561 91.1018C154.249 78.3207 170.284 66.8131 181.943 58.5373C187.771 54.3971 192.507 51.0649 195.793 48.7917C197.44 47.6505 198.723 46.7787 199.599 46.1944C200.026 45.8697 200.485 45.5883 200.968 45.3545C200.587 45.7335 200.171 46.0759 199.727 46.377C198.891 47.0206 197.646 47.9472 196.035 49.1158C192.813 51.4849 188.127 54.8764 182.313 59.0394C170.695 67.3837 154.573 78.7954 136.748 91.3665Z" fill="#EBEBEB"/>
<path d="M139.308 95.5573L89.1122 120.366L73.9255 127.962L69.8185 130.057L68.7598 130.614C68.6347 130.671 68.5155 130.739 68.4039 130.819C68.5329 130.773 68.6593 130.72 68.7827 130.66L69.8642 130.144L74.0076 128.113L89.1852 120.531L139.181 95.2651C158.671 85.3917 176.34 76.4769 189.167 70.1C195.579 66.9047 200.781 64.3485 204.39 62.6093C206.193 61.7375 207.585 61.071 208.561 60.6328C209.037 60.3794 209.537 60.1731 210.053 60.0166C209.622 60.3303 209.164 60.6053 208.684 60.8382C207.772 61.3404 206.38 62.0661 204.577 62.9836C201.023 64.8095 195.852 67.4525 189.455 70.6706C176.636 77.1068 158.908 85.8893 139.308 95.5573Z" fill="#EBEBEB"/>
<path d="M141.17 100.094L87.6473 116.806L71.4522 121.95L67.0805 123.379L65.9443 123.767C65.8125 123.804 65.6842 123.853 65.561 123.913C65.6973 123.89 65.8316 123.857 65.9625 123.813L67.1125 123.47L71.5298 122.101L87.7249 116.97L141.116 99.7749C161.938 93.0465 180.816 86.9938 194.506 82.6756C201.351 80.521 206.896 78.8001 210.738 77.6544C212.659 77.0747 214.156 76.6365 215.173 76.3535C215.682 76.1739 216.208 76.047 216.743 75.9746C216.263 76.2207 215.76 76.4194 215.242 76.568C214.247 76.9241 212.773 77.4262 210.87 78.0607C207.064 79.3251 201.543 81.119 194.707 83.3009C180.981 87.6648 162.066 93.576 141.17 100.094Z" fill="#EBEBEB"/>
<path d="M142.288 104.865L86.7621 113.081L69.9509 115.647L65.3876 116.377L64.2057 116.583C64.0696 116.6 63.9352 116.629 63.8041 116.669C63.9403 116.668 64.0761 116.656 64.2102 116.633L65.4058 116.473L69.9691 115.816L86.7803 113.259L142.238 104.532C163.873 101.122 183.472 98.0636 197.673 95.9319C204.774 94.8683 210.523 94.0284 214.503 93.4806C216.492 93.2067 218.039 93.0242 219.093 92.8827C219.625 92.7903 220.164 92.746 220.704 92.7503C220.19 92.9189 219.662 93.0381 219.125 93.1063C218.085 93.3026 216.551 93.5628 214.562 93.896C210.601 94.5579 204.86 95.4708 197.764 96.5664C183.582 98.7665 163.959 101.679 142.288 104.865Z" fill="#EBEBEB"/>
<path d="M161.3 18.3827C159.003 15.7506 156.011 13.8203 152.666 12.8138C150.343 12.1611 146.821 11.5631 143.234 12.4395C141.06 12.9523 139.059 14.0293 137.434 15.5618C135.513 17.3876 134.048 19.8663 133.08 22.9794C133.01 23.2049 132.986 23.4423 133.008 23.6775C133.031 23.9126 133.101 24.1409 133.213 24.3488C133.327 24.5621 133.484 24.7502 133.673 24.9015C133.862 25.0529 134.079 25.1646 134.313 25.2298L140.409 26.9461C140.827 27.0595 141.273 27.0203 141.665 26.8355C142.057 26.6507 142.37 26.3323 142.549 25.9373C143.357 24.1114 145.397 21.1992 149.978 22.4088C151.141 22.6913 152.186 23.3294 152.969 24.2344C153.752 25.1393 154.233 26.266 154.345 27.4573C154.454 28.4698 154.322 29.4936 153.961 30.4454C153.599 31.3972 153.018 32.2502 152.265 32.935C149.892 35.1488 146.789 34.7198 145.159 34.2679C144.257 34.0146 143.29 34.1294 142.472 34.587C141.653 35.0447 141.05 35.808 140.792 36.71L138.967 43.2694C138.844 43.7293 138.905 44.219 139.138 44.6343C139.371 45.0495 139.757 45.3575 140.213 45.4924L146.145 47.1631C146.606 47.2875 147.096 47.2268 147.512 46.9939C147.929 46.761 148.237 46.3745 148.372 45.9169L148.76 44.5475C148.765 44.5314 148.774 44.517 148.787 44.5064C148.8 44.4958 148.816 44.4894 148.833 44.4882C151.432 44.3141 153.962 43.5724 156.244 42.3154C160.081 40.1791 162.683 36.7602 163.979 32.1498C165.822 25.5584 163.54 21.0211 161.3 18.3827Z" fill="#E0E0E0"/>
<path d="M142.997 48.0626L142.476 47.9165C141.885 47.7499 141.266 47.7014 140.656 47.7738C140.046 47.8463 139.456 48.0383 138.92 48.3388C137.837 48.9457 137.04 49.958 136.704 51.1529C136.537 51.7445 136.489 52.3632 136.561 52.9736C136.634 53.584 136.825 54.1741 137.126 54.7103C137.426 55.2465 137.829 55.7183 138.312 56.0986C138.795 56.479 139.348 56.7606 139.939 56.9272L140.459 57.0733C141.654 57.4098 142.933 57.2579 144.016 56.651C145.098 56.0441 145.895 55.0318 146.232 53.8369C146.568 52.642 146.416 51.3624 145.81 50.2795C145.203 49.1966 144.191 48.3991 142.997 48.0626Z" fill="#E0E0E0"/>
<path d="M183.719 128.583C182.135 127.745 180.348 127.371 178.562 127.501C176.927 127.622 175.35 128.155 173.976 129.048C173.03 129.694 172.27 130.577 171.772 131.609C171.159 132.971 170.909 134.468 171.046 135.955C171.052 136.078 171.084 136.2 171.138 136.311C171.193 136.422 171.269 136.521 171.363 136.602C171.457 136.682 171.566 136.743 171.684 136.78C171.803 136.817 171.927 136.83 172.05 136.817L175.286 136.521C175.508 136.503 175.716 136.405 175.871 136.244C176.025 136.083 176.116 135.872 176.125 135.649C176.175 134.622 176.623 132.86 179.037 132.595C179.647 132.511 180.269 132.621 180.814 132.909C181.36 133.198 181.801 133.65 182.076 134.202C182.311 134.666 182.434 135.179 182.434 135.699C182.434 136.219 182.311 136.732 182.076 137.196C181.346 138.694 179.794 139.059 178.918 139.141C178.441 139.187 178.001 139.42 177.693 139.788C177.386 140.156 177.236 140.63 177.275 141.108L177.59 144.587C177.599 144.708 177.633 144.827 177.688 144.935C177.744 145.044 177.821 145.14 177.915 145.219C178.008 145.297 178.117 145.356 178.233 145.391C178.35 145.427 178.473 145.439 178.594 145.426L181.747 145.139C181.869 145.129 181.987 145.095 182.096 145.039C182.204 144.983 182.3 144.905 182.378 144.811C182.456 144.717 182.514 144.608 182.549 144.491C182.584 144.374 182.595 144.251 182.582 144.13L182.514 143.4C182.514 143.391 182.517 143.382 182.521 143.375C182.526 143.368 182.533 143.362 182.541 143.359C183.753 142.799 184.827 141.981 185.69 140.962C186.406 140.094 186.937 139.089 187.251 138.008C187.565 136.927 187.655 135.793 187.515 134.677C187.196 131.185 185.27 129.436 183.719 128.583Z" fill="#F5F5F5"/>
<path d="M180.387 146.152L180.113 146.179C179.795 146.203 179.484 146.29 179.2 146.435C178.915 146.581 178.662 146.781 178.456 147.026C178.25 147.27 178.095 147.553 178 147.858C177.905 148.163 177.871 148.484 177.902 148.802C177.932 149.12 178.026 149.429 178.177 149.711C178.328 149.992 178.534 150.241 178.783 150.441C179.031 150.642 179.317 150.791 179.624 150.88C179.931 150.969 180.253 150.996 180.57 150.959L180.844 150.931C181.162 150.908 181.473 150.821 181.757 150.675C182.042 150.53 182.295 150.329 182.501 150.085C182.707 149.841 182.862 149.558 182.957 149.253C183.052 148.948 183.086 148.627 183.055 148.308C183.025 147.99 182.931 147.681 182.78 147.4C182.629 147.119 182.423 146.87 182.175 146.669C181.926 146.468 181.64 146.319 181.333 146.23C181.026 146.142 180.705 146.115 180.387 146.152Z" fill="#F5F5F5"/>
<path d="M71.8355 28.0455C70.7549 27.0189 69.4078 26.3167 67.9476 26.0188C66.6078 25.7434 65.2203 25.811 63.9136 26.2151C63.0078 26.5152 62.1972 27.049 61.5635 27.7625C60.7596 28.7167 60.2171 29.8633 59.9892 31.0902C59.968 31.1904 59.9671 31.2938 59.9865 31.3944C60.0059 31.495 60.0453 31.5906 60.1023 31.6757C60.1593 31.7608 60.2328 31.8336 60.3184 31.8898C60.404 31.9461 60.4999 31.9846 60.6007 32.0031L63.2611 32.5052C63.4434 32.5382 63.6316 32.5048 63.7915 32.411C63.9513 32.3172 64.0724 32.1693 64.1326 31.994C64.3022 31.3571 64.7158 30.8126 65.2838 30.4786C65.8517 30.1445 66.5284 30.0477 67.1672 30.2092C67.6727 30.2861 68.1417 30.5186 68.5089 30.8745C68.8761 31.2304 69.1233 31.6919 69.2162 32.1948C69.3018 32.621 69.2848 33.0614 69.1666 33.4797C69.0484 33.898 68.8323 34.2822 68.5362 34.6004C67.6236 35.632 66.2546 35.5681 65.561 35.4357C65.1671 35.3622 64.7602 35.4477 64.4292 35.6736C64.0983 35.8994 63.8702 36.2472 63.795 36.6408L63.2565 39.5074C63.2353 39.608 63.2346 39.7117 63.2543 39.8126C63.274 39.9134 63.3138 40.0092 63.3713 40.0944C63.4287 40.1795 63.5027 40.2523 63.5888 40.3083C63.6749 40.3643 63.7714 40.4024 63.8725 40.4204L66.4645 40.9088C66.565 40.9293 66.6685 40.9296 66.7691 40.9096C66.8696 40.8896 66.9652 40.8497 67.0502 40.7923C67.1351 40.735 67.2078 40.6612 67.264 40.5754C67.3201 40.4896 67.3586 40.3934 67.3772 40.2926L67.4912 39.69C67.4932 39.6836 67.4967 39.6777 67.5015 39.6729C67.5063 39.6681 67.5122 39.6646 67.5186 39.6626C68.6196 39.4907 69.6695 39.0794 70.5943 38.4576C71.3694 37.9265 72.0276 37.2422 72.5284 36.4469C73.0291 35.6517 73.3617 34.7623 73.5057 33.8335C74.035 30.9258 72.8896 29.0863 71.8355 28.0455Z" fill="#F5F5F5"/>
<path d="M65.1594 41.3836L64.9358 41.3425C64.4148 41.2439 63.8759 41.3563 63.4378 41.655C62.9996 41.9538 62.698 42.4144 62.5994 42.9356C62.5007 43.4568 62.6131 43.9958 62.9118 44.4341C63.2105 44.8724 63.671 45.1741 64.192 45.2727L64.4201 45.3184C64.9306 45.3905 65.4492 45.2629 65.8681 44.9623C66.2869 44.6617 66.5738 44.2111 66.669 43.7043C66.7642 43.1975 66.6605 42.6734 66.3793 42.2412C66.0981 41.809 65.6612 41.5018 65.1594 41.3836Z" fill="#F5F5F5"/>
<path d="M178.904 55.2328C177.325 54.3875 175.539 54.0046 173.752 54.1281C172.118 54.2421 170.538 54.7681 169.162 55.6573C168.212 56.2992 167.447 57.1791 166.944 58.209C166.326 59.5692 166.07 61.0661 166.2 62.5546C166.206 62.6783 166.237 62.7994 166.292 62.9106C166.346 63.0218 166.423 63.1208 166.517 63.2015C166.611 63.2822 166.72 63.343 166.838 63.3801C166.956 63.4172 167.081 63.4298 167.204 63.4173L170.439 63.1343C170.662 63.1166 170.87 63.0182 171.024 62.8576C171.179 62.697 171.27 62.4853 171.279 62.2624C171.334 61.2354 171.79 59.478 174.204 59.2223C174.814 59.1476 175.431 59.2648 175.971 59.5577C176.511 59.8506 176.946 60.3046 177.216 60.8565C177.451 61.3197 177.574 61.8319 177.574 62.3514C177.574 62.871 177.451 63.3832 177.216 63.8464C176.481 65.3436 174.934 65.6996 174.049 65.7772C173.571 65.8213 173.129 66.0521 172.82 66.4195C172.511 66.7869 172.359 67.2613 172.397 67.74L172.703 71.2229C172.712 71.3446 172.745 71.4633 172.801 71.5718C172.857 71.6804 172.934 71.7767 173.027 71.855C173.121 71.9333 173.229 71.992 173.346 72.0277C173.463 72.0634 173.585 72.0753 173.707 72.0628L176.855 71.7889C176.977 71.7798 177.096 71.7464 177.204 71.6906C177.313 71.6348 177.409 71.5579 177.487 71.4642C177.565 71.3706 177.624 71.2622 177.66 71.1455C177.696 71.0288 177.707 70.9061 177.695 70.7847L177.631 70.0543C177.631 70.0455 177.633 70.0366 177.638 70.0292C177.643 70.0218 177.65 70.0162 177.658 70.0133C178.871 69.4554 179.949 68.6408 180.816 67.6259C181.54 66.7621 182.079 65.7591 182.4 64.6788C182.721 63.5985 182.817 62.4639 182.683 61.3449C182.372 57.8301 180.456 56.0727 178.904 55.2328Z" fill="#EBEBEB"/>
<path d="M175.505 72.7707L175.226 72.7936C174.613 72.8741 174.054 73.1886 173.667 73.6713C173.279 74.154 173.093 74.7677 173.147 75.3843C173.202 76.0009 173.492 76.5728 173.957 76.9806C174.423 77.3883 175.028 77.6005 175.646 77.5728L175.92 77.55C176.234 77.5227 176.539 77.4339 176.818 77.2886C177.098 77.1433 177.346 76.9444 177.548 76.7032C177.751 76.462 177.904 76.1833 177.999 75.8829C178.094 75.5826 178.128 75.2665 178.101 74.9526C178.074 74.6388 177.985 74.3335 177.84 74.054C177.695 73.7745 177.496 73.5264 177.255 73.3238C177.013 73.1212 176.735 72.968 176.435 72.8731C176.134 72.7783 175.818 72.7435 175.505 72.7707Z" fill="#EBEBEB"/>
<path d="M81.6831 160.398C79.7075 159.505 77.5197 159.188 75.3721 159.485C73.4043 159.75 71.5359 160.511 69.9417 161.695C68.8445 162.543 67.9899 163.666 67.4639 164.949C66.8248 166.643 66.6331 168.473 66.9071 170.262C66.9248 170.41 66.9724 170.553 67.0469 170.681C67.1214 170.81 67.2214 170.922 67.3407 171.011C67.4603 171.102 67.5972 171.168 67.7431 171.205C67.889 171.242 68.0408 171.249 68.1894 171.226L72.0728 170.632C72.3388 170.591 72.581 170.455 72.7552 170.25C72.9294 170.044 73.0241 169.783 73.022 169.514C73.022 168.268 73.419 166.104 76.3167 165.611C77.0461 165.472 77.8006 165.564 78.4753 165.875C79.15 166.185 79.7114 166.697 80.0814 167.341C80.4006 167.884 80.5875 168.495 80.6272 169.124C80.6668 169.753 80.558 170.382 80.3096 170.961C79.5338 172.823 77.672 173.376 76.6315 173.54C76.0597 173.633 75.5475 173.948 75.2059 174.416C74.8643 174.884 74.7207 175.468 74.8062 176.041L75.4451 180.223C75.4673 180.368 75.5181 180.508 75.5944 180.634C75.6707 180.759 75.7711 180.869 75.8898 180.956C76.0085 181.043 76.1432 181.105 76.2861 181.14C76.4291 181.175 76.5775 181.181 76.7228 181.158L80.5058 180.579C80.7989 180.534 81.0622 180.374 81.2383 180.136C81.4144 179.897 81.489 179.599 81.4458 179.305L81.3089 178.424C81.3089 178.414 81.3114 178.404 81.3162 178.396C81.321 178.387 81.3279 178.379 81.3363 178.374C82.7669 177.609 84.0128 176.54 84.9869 175.243C85.7867 174.136 86.3515 172.878 86.6466 171.545C86.9417 170.212 86.9608 168.832 86.7027 167.492C86.073 163.288 83.6225 161.316 81.6831 160.398Z" fill="#EBEBEB"/>
<path d="M78.9451 181.875L78.6166 181.926C77.8553 182.042 77.1714 182.456 76.7153 183.076C76.2591 183.697 76.0681 184.474 76.1843 185.235C76.3005 185.996 76.7143 186.681 77.3348 187.137C77.9552 187.593 78.7315 187.784 79.4927 187.668L79.8258 187.618C80.5871 187.501 81.2708 187.086 81.7265 186.465C82.1822 185.844 82.3726 185.068 82.2558 184.306C82.139 183.545 81.7246 182.861 81.1037 182.405C80.4829 181.949 79.7064 181.759 78.9451 181.875Z" fill="#EBEBEB"/>
<path d="M47.6181 81.2743C44.8427 80.0187 41.7697 79.571 38.7516 79.9825C36.6707 80.3066 33.6589 81.11 31.1263 83.1002C29.5914 84.2925 28.3957 85.8664 27.6582 87.6649C26.7633 90.0448 26.4976 92.6155 26.887 95.1282C26.9115 95.3382 26.9781 95.5411 27.0829 95.7247C27.1877 95.9083 27.3284 96.0689 27.4968 96.1968C27.6651 96.3247 27.8575 96.4172 28.0625 96.4689C28.2674 96.5206 28.4807 96.5303 28.6895 96.4976L34.1426 95.6531C34.5166 95.594 34.8569 95.4025 35.1015 95.1134C35.3461 94.8243 35.4787 94.457 35.4751 94.0783C35.4751 92.33 36.0227 89.2899 40.0932 88.6007C41.1179 88.4043 42.1784 88.5322 43.1271 88.9666C44.0758 89.401 44.8656 90.1203 45.3866 91.0245C45.8367 91.7868 46.101 92.6444 46.1581 93.5278C46.2151 94.4112 46.0634 95.2957 45.7152 96.1096C44.6337 98.7297 42.0189 99.5103 40.5586 99.7613C39.7516 99.8896 39.0277 100.331 38.5441 100.99C38.0606 101.649 37.8563 102.472 37.9758 103.281L38.8885 109.155C38.9526 109.567 39.1773 109.937 39.5135 110.184C39.8497 110.43 40.2698 110.533 40.6819 110.47L45.9981 109.644C46.4099 109.58 46.7796 109.355 47.0259 109.019C47.2723 108.682 47.3753 108.262 47.3123 107.85L47.1207 106.613C47.1195 106.599 47.1228 106.584 47.1302 106.572C47.1376 106.56 47.1486 106.55 47.1617 106.544C49.1593 105.46 50.897 103.954 52.2544 102.13C54.536 99.0492 55.3529 95.3929 54.7094 91.2664C53.7968 85.3187 50.3469 82.5525 47.6181 81.2743Z" fill="#EBEBEB"/>
<path d="M43.8351 111.451L43.3788 111.524C42.3089 111.689 41.3482 112.272 40.7081 113.145C40.068 114.018 39.8008 115.11 39.9654 116.18C40.13 117.25 40.7129 118.211 41.5858 118.852C42.4587 119.492 43.5501 119.759 44.62 119.595L45.0763 119.526C45.6194 119.459 46.1436 119.284 46.6178 119.011C47.0919 118.738 47.5063 118.372 47.8363 117.935C48.1664 117.499 48.4053 117 48.539 116.469C48.6727 115.939 48.6985 115.386 48.6147 114.845C48.5309 114.305 48.3392 113.786 48.0512 113.321C47.7632 112.855 47.3845 112.452 46.9379 112.136C46.4912 111.82 45.9856 111.597 45.451 111.48C44.9164 111.363 44.3638 111.355 43.826 111.456L43.8351 111.451Z" fill="#EBEBEB"/>
<path d="M106.875 141.667C127.31 141.667 143.875 124.952 143.875 104.333C143.875 83.7147 127.31 67 106.875 67C86.4405 67 69.875 83.7147 69.875 104.333C69.875 124.952 86.4405 141.667 106.875 141.667Z" fill="#D9D9D9" fill-opacity="0.3" stroke="#444444" stroke-width="8" stroke-linecap="round" stroke-linejoin="round"/>
<path d="M153.125 151L133.006 130.7" stroke="#444444" stroke-width="8" stroke-linecap="round" stroke-linejoin="round"/>
</g>
<defs>
<clipPath id="clip0_263_17811">
<rect width="222" height="219" fill="white"/>
</clipPath>
</defs>
</svg>
